<mxfile host="app.diagrams.net" agent="Mozilla/5.0 (Windows NT 10.0; Win64; x64) AppleWebKit/537.36 (KHTML, like Gecko) Chrome/131.0.0.0 Safari/537.36" version="26.0.9">
  <diagram name="Page-1" id="OntT7nBhSshzCYPN_lfB">
    <mxGraphModel dx="1050" dy="557" grid="1" gridSize="10" guides="1" tooltips="1" connect="1" arrows="1" fold="1" page="1" pageScale="1" pageWidth="827" pageHeight="1169" math="0" shadow="0">
      <root>
        <mxCell id="0" />
        <mxCell id="1" parent="0" />
        <mxCell id="Islg0_Fvte1SXOhrgqzc-2" value="" style="edgeStyle=orthogonalEdgeStyle;rounded=0;orthogonalLoop=1;jettySize=auto;html=1;" edge="1" parent="1" source="Islg0_Fvte1SXOhrgqzc-3" target="Islg0_Fvte1SXOhrgqzc-6">
          <mxGeometry relative="1" as="geometry" />
        </mxCell>
        <mxCell id="Islg0_Fvte1SXOhrgqzc-3" value="เริ่มต้น" style="rounded=1;whiteSpace=wrap;html=1;arcSize=50;" vertex="1" parent="1">
          <mxGeometry x="369" y="80" width="88" height="42" as="geometry" />
        </mxCell>
        <mxCell id="Islg0_Fvte1SXOhrgqzc-4" value="&lt;span style=&quot;color: rgb(0, 0, 0); font-family: Helvetica; font-size: 12px; font-style: normal; font-variant-ligatures: normal; font-variant-caps: normal; font-weight: 400; letter-spacing: normal; orphans: 2; text-align: center; text-indent: 0px; text-transform: none; widows: 2; word-spacing: 0px; -webkit-text-stroke-width: 0px; white-space: normal; background-color: rgb(255, 255, 255); text-decoration-thickness: initial; text-decoration-style: initial; text-decoration-color: initial; float: none; display: inline !important;&quot;&gt;admin จัดการข้อมูลลูกค้า&lt;/span&gt;" style="text;whiteSpace=wrap;html=1;" vertex="1" parent="1">
          <mxGeometry x="140" y="40" width="190" height="40" as="geometry" />
        </mxCell>
        <mxCell id="Islg0_Fvte1SXOhrgqzc-5" value="" style="edgeStyle=orthogonalEdgeStyle;rounded=0;orthogonalLoop=1;jettySize=auto;html=1;" edge="1" parent="1" source="Islg0_Fvte1SXOhrgqzc-6" target="Islg0_Fvte1SXOhrgqzc-9">
          <mxGeometry relative="1" as="geometry" />
        </mxCell>
        <mxCell id="Islg0_Fvte1SXOhrgqzc-6" value="&lt;span style=&quot;background-color: rgb(255, 255, 255);&quot;&gt;จัดการข้อมูลลูกค้า&lt;/span&gt;" style="rhombus;whiteSpace=wrap;html=1;" vertex="1" parent="1">
          <mxGeometry x="358" y="180" width="110" height="60" as="geometry" />
        </mxCell>
        <mxCell id="Islg0_Fvte1SXOhrgqzc-7" value="เพิ่มข้อมูล&lt;span style=&quot;background-color: rgb(255, 255, 255);&quot;&gt;ลูกค้า&lt;/span&gt;" style="rounded=0;whiteSpace=wrap;html=1;" vertex="1" parent="1">
          <mxGeometry x="170" y="320" width="111" height="40" as="geometry" />
        </mxCell>
        <mxCell id="Islg0_Fvte1SXOhrgqzc-8" value="" style="edgeStyle=orthogonalEdgeStyle;rounded=0;orthogonalLoop=1;jettySize=auto;html=1;" edge="1" parent="1" source="Islg0_Fvte1SXOhrgqzc-9" target="Islg0_Fvte1SXOhrgqzc-14">
          <mxGeometry relative="1" as="geometry" />
        </mxCell>
        <mxCell id="Islg0_Fvte1SXOhrgqzc-9" value="แก้ไขข้อมูล&lt;span style=&quot;background-color: rgb(255, 255, 255);&quot;&gt;ลูกค้า&lt;/span&gt;" style="rounded=0;whiteSpace=wrap;html=1;" vertex="1" parent="1">
          <mxGeometry x="358" y="320" width="111" height="40" as="geometry" />
        </mxCell>
        <mxCell id="Islg0_Fvte1SXOhrgqzc-10" value="ลบข้อมูล&lt;span style=&quot;background-color: rgb(255, 255, 255);&quot;&gt;ลูกค้า&lt;/span&gt;" style="rounded=0;whiteSpace=wrap;html=1;" vertex="1" parent="1">
          <mxGeometry x="550" y="320" width="111" height="40" as="geometry" />
        </mxCell>
        <mxCell id="Islg0_Fvte1SXOhrgqzc-11" value="" style="endArrow=classic;html=1;rounded=0;entryX=0.5;entryY=0;entryDx=0;entryDy=0;exitX=0.5;exitY=1;exitDx=0;exitDy=0;" edge="1" parent="1" source="Islg0_Fvte1SXOhrgqzc-6" target="Islg0_Fvte1SXOhrgqzc-7">
          <mxGeometry width="50" height="50" relative="1" as="geometry">
            <mxPoint x="350" y="260" as="sourcePoint" />
            <mxPoint x="400" y="210" as="targetPoint" />
            <Array as="points">
              <mxPoint x="413" y="270" />
              <mxPoint x="226" y="270" />
            </Array>
          </mxGeometry>
        </mxCell>
        <mxCell id="Islg0_Fvte1SXOhrgqzc-12" value="" style="endArrow=classic;html=1;rounded=0;entryX=0.5;entryY=0;entryDx=0;entryDy=0;exitX=0.5;exitY=1;exitDx=0;exitDy=0;" edge="1" parent="1" source="Islg0_Fvte1SXOhrgqzc-6" target="Islg0_Fvte1SXOhrgqzc-10">
          <mxGeometry width="50" height="50" relative="1" as="geometry">
            <mxPoint x="350" y="260" as="sourcePoint" />
            <mxPoint x="400" y="210" as="targetPoint" />
            <Array as="points">
              <mxPoint x="413" y="270" />
              <mxPoint x="606" y="270" />
            </Array>
          </mxGeometry>
        </mxCell>
        <mxCell id="Islg0_Fvte1SXOhrgqzc-13" value="" style="edgeStyle=orthogonalEdgeStyle;rounded=0;orthogonalLoop=1;jettySize=auto;html=1;" edge="1" parent="1" source="Islg0_Fvte1SXOhrgqzc-14" target="Islg0_Fvte1SXOhrgqzc-18">
          <mxGeometry relative="1" as="geometry" />
        </mxCell>
        <mxCell id="Islg0_Fvte1SXOhrgqzc-14" value="" style="ellipse;whiteSpace=wrap;html=1;aspect=fixed;" vertex="1" parent="1">
          <mxGeometry x="398" y="400" width="30" height="30" as="geometry" />
        </mxCell>
        <mxCell id="Islg0_Fvte1SXOhrgqzc-15" value="" style="endArrow=classic;html=1;rounded=0;exitX=0.5;exitY=1;exitDx=0;exitDy=0;entryX=0;entryY=0.5;entryDx=0;entryDy=0;" edge="1" parent="1" source="Islg0_Fvte1SXOhrgqzc-7" target="Islg0_Fvte1SXOhrgqzc-14">
          <mxGeometry width="50" height="50" relative="1" as="geometry">
            <mxPoint x="380" y="310" as="sourcePoint" />
            <mxPoint x="430" y="260" as="targetPoint" />
            <Array as="points">
              <mxPoint x="226" y="415" />
            </Array>
          </mxGeometry>
        </mxCell>
        <mxCell id="Islg0_Fvte1SXOhrgqzc-16" value="" style="endArrow=classic;html=1;rounded=0;entryX=1;entryY=0.5;entryDx=0;entryDy=0;exitX=0.5;exitY=1;exitDx=0;exitDy=0;" edge="1" parent="1" source="Islg0_Fvte1SXOhrgqzc-10" target="Islg0_Fvte1SXOhrgqzc-14">
          <mxGeometry width="50" height="50" relative="1" as="geometry">
            <mxPoint x="380" y="310" as="sourcePoint" />
            <mxPoint x="430" y="260" as="targetPoint" />
            <Array as="points">
              <mxPoint x="606" y="415" />
            </Array>
          </mxGeometry>
        </mxCell>
        <mxCell id="Islg0_Fvte1SXOhrgqzc-17" value="" style="edgeStyle=orthogonalEdgeStyle;rounded=0;orthogonalLoop=1;jettySize=auto;html=1;" edge="1" parent="1" source="Islg0_Fvte1SXOhrgqzc-18" target="Islg0_Fvte1SXOhrgqzc-19">
          <mxGeometry relative="1" as="geometry" />
        </mxCell>
        <mxCell id="Islg0_Fvte1SXOhrgqzc-18" value="&lt;span style=&quot;background-color: rgb(255, 255, 255);&quot;&gt;ออก&lt;/span&gt;" style="rhombus;whiteSpace=wrap;html=1;" vertex="1" parent="1">
          <mxGeometry x="358" y="470" width="110" height="60" as="geometry" />
        </mxCell>
        <mxCell id="Islg0_Fvte1SXOhrgqzc-19" value="จบ" style="rounded=1;whiteSpace=wrap;html=1;arcSize=50;" vertex="1" parent="1">
          <mxGeometry x="369" y="590" width="88" height="42" as="geometry" />
        </mxCell>
        <mxCell id="Islg0_Fvte1SXOhrgqzc-20" value="" style="endArrow=classic;html=1;rounded=0;exitX=0;exitY=0.5;exitDx=0;exitDy=0;" edge="1" parent="1" source="Islg0_Fvte1SXOhrgqzc-18">
          <mxGeometry width="50" height="50" relative="1" as="geometry">
            <mxPoint x="380" y="470" as="sourcePoint" />
            <mxPoint x="413" y="150" as="targetPoint" />
            <Array as="points">
              <mxPoint x="130" y="500" />
              <mxPoint x="130" y="150" />
            </Array>
          </mxGeometry>
        </mxCell>
        <mxCell id="Islg0_Fvte1SXOhrgqzc-21" value="" style="endArrow=classic;html=1;rounded=0;exitX=1;exitY=0.5;exitDx=0;exitDy=0;" edge="1" parent="1" source="Islg0_Fvte1SXOhrgqzc-6">
          <mxGeometry width="50" height="50" relative="1" as="geometry">
            <mxPoint x="380" y="310" as="sourcePoint" />
            <mxPoint x="413" y="570" as="targetPoint" />
            <Array as="points">
              <mxPoint x="690" y="210" />
              <mxPoint x="690" y="570" />
            </Array>
          </mxGeometry>
        </mxCell>
        <mxCell id="Islg0_Fvte1SXOhrgqzc-22" value="yes" style="text;html=1;align=center;verticalAlign=middle;resizable=0;points=[];autosize=1;strokeColor=none;fillColor=none;" vertex="1" parent="1">
          <mxGeometry x="410" y="238" width="40" height="30" as="geometry" />
        </mxCell>
        <mxCell id="Islg0_Fvte1SXOhrgqzc-23" value="no" style="text;html=1;align=center;verticalAlign=middle;resizable=0;points=[];autosize=1;strokeColor=none;fillColor=none;" vertex="1" parent="1">
          <mxGeometry x="469" y="180" width="40" height="30" as="geometry" />
        </mxCell>
        <mxCell id="Islg0_Fvte1SXOhrgqzc-24" value="yes" style="text;html=1;align=center;verticalAlign=middle;resizable=0;points=[];autosize=1;strokeColor=none;fillColor=none;" vertex="1" parent="1">
          <mxGeometry x="410" y="530" width="40" height="30" as="geometry" />
        </mxCell>
        <mxCell id="Islg0_Fvte1SXOhrgqzc-25" value="no" style="text;html=1;align=center;verticalAlign=middle;resizable=0;points=[];autosize=1;strokeColor=none;fillColor=none;" vertex="1" parent="1">
          <mxGeometry x="310" y="470" width="40" height="30" as="geometry" />
        </mxCell>
      </root>
    </mxGraphModel>
  </diagram>
</mxfile>
